<svg xmlns="http://www.w3.org/2000/svg" width="15" height="20" viewBox="0 0 15 20">
  <path id="Bell" d="M13.965,15.891a.486.486,0,0,1-.48.492H1.515a.485.485,0,0,1-.478-.492V10.733A6.553,6.553,0,0,1,7.5,4.109a6.553,6.553,0,0,1,6.464,6.624ZM7.5,18.938a1.335,1.335,0,0,1-1.317-1.35c0-.049,0-.1.007-.144h2.62c0,.048.007.1.007.144A1.336,1.336,0,0,1,7.5,18.938ZM9.125,3.229A2.064,2.064,0,0,0,9.5,2.044a2,2,0,1,0-3.99,0,2.069,2.069,0,0,0,.37,1.185A7.658,7.658,0,0,0,0,10.733v5.158a1.536,1.536,0,0,0,1.515,1.553H5.151c0,.048,0,.1,0,.144a2.354,2.354,0,1,0,4.706,0c0-.049,0-.1,0-.144h3.636A1.536,1.536,0,0,0,15,15.891V10.733A7.657,7.657,0,0,0,9.125,3.229Z" fill="#626262" fill-rule="evenodd"/>
</svg>
