<svg xmlns="http://www.w3.org/2000/svg" width="20" height="16" viewBox="0 0 20 16">
  <path id="Camera_Icon" data-name="Camera Icon" d="M10,12.015a2.677,2.677,0,1,1,2.736-2.676A2.71,2.71,0,0,1,10,12.015Zm0-6.46A3.83,3.83,0,0,0,6.132,9.339a3.869,3.869,0,0,0,7.736,0A3.83,3.83,0,0,0,10,5.555ZM18.868,13.4a1.516,1.516,0,0,1-1.531,1.5H2.663a1.516,1.516,0,0,1-1.531-1.5V5.423a1.516,1.516,0,0,1,1.531-1.5H4.75A1.619,1.619,0,0,0,6.266,2.888l.547-1.47a.482.482,0,0,1,.453-.31h5.468a.483.483,0,0,1,.454.311l.546,1.47A1.619,1.619,0,0,0,15.25,3.927h2.087a1.516,1.516,0,0,1,1.531,1.5ZM17.337,2.82H15.25a.485.485,0,0,1-.453-.311L14.252,1.04A1.617,1.617,0,0,0,12.734,0H7.266A1.615,1.615,0,0,0,5.749,1.039L5.2,2.508a.485.485,0,0,1-.453.312H2.663A2.637,2.637,0,0,0,0,5.423V13.4A2.636,2.636,0,0,0,2.663,16H17.337A2.636,2.636,0,0,0,20,13.4V5.423A2.637,2.637,0,0,0,17.337,2.82Z" fill="#757575" fill-rule="evenodd"/>
</svg>
