<svg xmlns="http://www.w3.org/2000/svg" width="22" height="18" viewBox="0 0 22 18">
  <path id="Cart_Icon" data-name="Cart Icon" d="M18.452,16.667a1.323,1.323,0,1,1-1.322-1.333A1.328,1.328,0,0,1,18.452,16.667Zm-6.5,0a1.323,1.323,0,1,1-1.323-1.333A1.328,1.328,0,0,1,11.956,16.667ZM20.733,5.751l-1.778,5.336a2.289,2.289,0,0,1-2.17,1.573H10.512a2.29,2.29,0,0,1-2.163-1.55L6.3,5.172H20.319a.43.43,0,0,1,.354.182A.441.441,0,0,1,20.733,5.751Zm.951-1.13a1.68,1.68,0,0,0-1.364-.7H5.869L5,1.405A2.081,2.081,0,0,0,3.038,0H.622a.627.627,0,0,0,0,1.255H3.038a.835.835,0,0,1,.787.564L4.833,4.737l.009.027,2.331,6.758a3.537,3.537,0,0,0,3.339,2.392h6.273a3.533,3.533,0,0,0,3.35-2.428l1.779-5.337A1.71,1.71,0,0,0,21.683,4.621Z" fill="#7c7c7c" fill-rule="evenodd"/>
</svg>
