<svg xmlns="http://www.w3.org/2000/svg" width="22" height="20" viewBox="0 0 22 20">
  <path id="Chat_bubble_Icon" data-name="Chat bubble Icon" d="M16.948,8.177a1.316,1.316,0,1,1-1.316-1.3A1.309,1.309,0,0,1,16.948,8.177Zm-4.63,0A1.316,1.316,0,1,1,11,6.876,1.309,1.309,0,0,1,12.317,8.177Zm-4.631,0a1.316,1.316,0,1,1-1.316-1.3A1.308,1.308,0,0,1,7.686,8.177ZM18.657,13.3a6.929,6.929,0,0,1-1.473,1.109,1.733,1.733,0,0,0-.922,1.512v2.461l-3.416-2.517a1.732,1.732,0,0,0-1.228-.5H8.4A7.118,7.118,0,0,1,1.245,8.3a6.971,6.971,0,0,1,2.086-5A7.21,7.21,0,0,1,8.4,1.23h4.871a7.711,7.711,0,0,1,5.454,2.291,6.8,6.8,0,0,1,2.025,4.973A6.952,6.952,0,0,1,18.657,13.3Zm.964-10.638A8.966,8.966,0,0,0,13.274,0H8.4A8.455,8.455,0,0,0,2.453,2.434,8.185,8.185,0,0,0,0,8.3a8.357,8.357,0,0,0,8.4,8.291h3.216a.588.588,0,0,1,.414.2l4.012,2.957a.859.859,0,0,0,.6.249.877.877,0,0,0,.329-.065.844.844,0,0,0,.529-.782v-3.23a.522.522,0,0,1,.293-.443A8.26,8.26,0,0,0,22,8.526,8.013,8.013,0,0,0,19.621,2.663Z" fill="#b6b6b6" fill-rule="evenodd"/>
</svg>
