<svg id="google-icon" xmlns="http://www.w3.org/2000/svg" width="15.999" height="16.325" viewBox="0 0 15.999 16.325">
  <path id="Path_107" data-name="Path 107" d="M16,8.344a7,7,0,0,0-.172-1.669H8.163V9.7h4.5a3.989,3.989,0,0,1-1.669,2.648l-.015.1L13.4,14.332l.168.017A7.981,7.981,0,0,0,16,8.344Z" fill="#4285f4"/>
  <path id="Path_108" data-name="Path 108" d="M8.163,16.325a7.78,7.78,0,0,0,5.406-1.977l-2.576-2a4.831,4.831,0,0,1-2.83.816A4.914,4.914,0,0,1,3.519,9.777l-.1.008L.9,11.735l-.033.092A8.157,8.157,0,0,0,8.163,16.325Z" fill="#34a853"/>
  <path id="Path_109" data-name="Path 109" d="M3.519,9.777a5.025,5.025,0,0,1-.272-1.614A5.28,5.28,0,0,1,3.51,6.548l0-.108L.954,4.459.871,4.5a8.146,8.146,0,0,0,0,7.328Z" fill="#fbbc05"/>
  <path id="Path_110" data-name="Path 110" d="M8.163,3.156a4.524,4.524,0,0,1,3.156,1.215l2.3-2.249A7.843,7.843,0,0,0,8.163,0,8.157,8.157,0,0,0,.871,4.5L3.51,6.548A4.934,4.934,0,0,1,8.163,3.156Z" fill="#eb4335"/>
</svg>
