<svg xmlns="http://www.w3.org/2000/svg" width="22" height="20" viewBox="0 0 22 20">
  <path id="Heart_Icon" data-name="Heart Icon" d="M19.159,10.67l-7.864,7.948a.414.414,0,0,1-.588,0L2.841,10.67a5.56,5.56,0,0,1,0-7.8,5.424,5.424,0,0,1,7.719,0,.618.618,0,0,0,.88,0,5.424,5.424,0,0,1,7.718,0,5.56,5.56,0,0,1,0,7.8Zm.88-8.69A6.661,6.661,0,0,0,11,1.573a6.661,6.661,0,0,0-9.038.407,6.828,6.828,0,0,0,0,9.581l7.864,7.948a1.649,1.649,0,0,0,2.348,0l7.864-7.948a6.83,6.83,0,0,0,0-9.581Z" fill="#b6b6b6" fill-rule="evenodd"/>
</svg>
