<svg xmlns="http://www.w3.org/2000/svg" xmlns:xlink="http://www.w3.org/1999/xlink" width="202.676" height="202.679" viewBox="0 0 202.676 202.679">
  <defs>
    <linearGradient id="linear-gradient" x1="0.2" y1="0.111" x2="0.841" y2="0.856" gradientUnits="objectBoundingBox">
      <stop offset="0" stop-color="#ff528c"/>
      <stop offset="1" stop-color="#ffabc7"/>
    </linearGradient>
    <linearGradient id="linear-gradient-2" x1="0.5" y1="0" x2="0.5" y2="1" xlink:href="#linear-gradient"/>
  </defs>
  <g id="ic_dropper" transform="translate(-3591 -1198)">
    <g id="Group_14" data-name="Group 14" transform="translate(6288.065 128.062)">
      <path id="Path_5" data-name="Path 5" d="M101.528,202.056a101.377,101.377,0,0,1-20.282-2.046,100.491,100.491,0,0,1-78.2-78.221,101.517,101.517,0,0,1,0-40.521A100.5,100.5,0,0,1,81.267,3.042a101.516,101.516,0,0,1,40.521,0,100.494,100.494,0,0,1,78.225,78.227,101.515,101.515,0,0,1,0,40.521,100.49,100.49,0,0,1-78.225,78.225,101.324,101.324,0,0,1-20.26,2.041Z" transform="translate(-2697.255 1069.748)" fill="url(#linear-gradient)"/>
      <path id="Path_6" data-name="Path 6" d="M101.338,1.62a100.459,100.459,0,0,0-20.1,2.026A99.685,99.685,0,0,0,3.646,81.24a100.706,100.706,0,0,0,0,40.2,99.677,99.677,0,0,0,77.59,77.593,100.694,100.694,0,0,0,40.2,0,99.68,99.68,0,0,0,77.593-77.59,100.732,100.732,0,0,0,0-40.2,99.68,99.68,0,0,0-77.59-77.594,100.464,100.464,0,0,0-20.1-2.026m0-1.62A101.338,101.338,0,1,1,0,101.34,101.338,101.338,0,0,1,101.339,0Z" transform="translate(-2697.065 1069.938)" fill="url(#linear-gradient-2)"/>
    </g>
    <g id="Group_33" data-name="Group 33" transform="translate(3639 1233)">
      <g id="Group_32" data-name="Group 32" transform="translate(6.783)">
        <path id="Path_62" data-name="Path 62" d="M53.051,212.875c.026,0,.052.026.081.026a3.977,3.977,0,0,0,.782.081,14.654,14.654,0,0,0,10.607-4.431l8.392-8.288a.237.237,0,0,1,.208-.1,19.972,19.972,0,0,0,12.8-5.864l27.392-27.47-14.546-14.58L43.2,208.522a14,14,0,0,0,9.851,4.353Z" transform="translate(-38.725 -112.739)" fill="#ffeff4"/>
        <path id="Path_63" data-name="Path 63" d="M69.213,101.2h0a.331.331,0,0,0,0,.469l2.45,2.45a2.121,2.121,0,1,1-3,3l-2.45-2.45a.358.358,0,0,0-.469-.026l-.026.026-3.7,3.7h0a.331.331,0,0,0,0,.469l2.476,2.45a2.121,2.121,0,0,1-3,3l-2.476-2.45h0a.331.331,0,0,0-.469,0l-3.7,3.7h0a.331.331,0,0,0,0,.469l2.476,2.45.081.081a2.121,2.121,0,0,1-3.079,2.917l-2.476-2.476h0a.331.331,0,0,0-.469,0l-3.7,3.7h0a.331.331,0,0,0,0,.469l2.476,2.476a2.111,2.111,0,1,1-3,2.971l-2.424-2.424h0a.331.331,0,0,0-.469,0l-.026.026c-.026.026-.081.052-.1.1l-.156.156c-.1.1-.208.235-.313.339l-.081.081a4.527,4.527,0,0,0-.339.391c-.13.182-.287.365-.417.548a20.611,20.611,0,0,0-2.45,4.3,17.753,17.753,0,0,0-1.508,6.434v.026L36.478,141l-3.99,4.039-2.007,2.033a15,15,0,0,0,0,21.319h0L86.36,112.4,72.21,98.2Z" transform="translate(-26.034 -72.603)" fill="#feffff"/>
        <path id="Path_64" data-name="Path 64" d="M232.355,1.027a20.325,20.325,0,0,0-20.746,4.848l-8.236,8.209-2.971,3-.13.13-3.57-3.57a5.056,5.056,0,0,0-5.4-1.12,5.213,5.213,0,0,0-1.746,1.146,5.289,5.289,0,0,0-.99,1.407,5.185,5.185,0,0,0,.99,5.76l3.284,3.284a.335.335,0,0,1,.1.261.388.388,0,0,1-.1.235l-.443.443L208.56,41.184,240.122,5.822a20.139,20.139,0,0,0-7.767-4.8Z" transform="translate(-145.86 0.019)" fill="#feffff"/>
        <path id="Path_65" data-name="Path 65" d="M259.4,55.816l14.361,14.335.443-.443h0a.33.33,0,0,1,.469,0l3.31,3.336.026.026a5.05,5.05,0,1,0,7.116-7.167l-3.337-3.339h0a.331.331,0,0,1,0-.469l11.1-11.155a20.192,20.192,0,0,0-.052-28.643Z" transform="translate(-198.577 -16.484)" fill="#ffeff4"/>
      </g>
      <path id="Path_66" data-name="Path 66" d="M1.3,410.143A10.732,10.732,0,0,0,0,415.2a10.122,10.122,0,0,0,10.112,10.112V395Z" transform="translate(0 -292.049)" fill="#feffff"/>
      <path id="Path_67" data-name="Path 67" d="M47.583,410.143,38.8,395v30.311h0A10.122,10.122,0,0,0,48.912,415.2a11.075,11.075,0,0,0-1.329-5.057Z" transform="translate(-28.688 -292.049)" fill="#ffeff4"/>
    </g>
  </g>
</svg>
