<svg xmlns="http://www.w3.org/2000/svg" xmlns:xlink="http://www.w3.org/1999/xlink" width="202.676" height="202.676" viewBox="0 0 202.676 202.676">
  <defs>
    <linearGradient id="linear-gradient" x1="0.919" y1="1" x2="0.361" y2="0.333" gradientUnits="objectBoundingBox">
      <stop offset="0" stop-color="#86adfd"/>
      <stop offset="1" stop-color="#8fb4ff"/>
    </linearGradient>
    <linearGradient id="linear-gradient-2" x1="-699.534" y1="125.179" x2="-705.204" y2="126.428" gradientUnits="objectBoundingBox">
      <stop offset="0" stop-color="#f82a19"/>
      <stop offset="1" stop-color="#f66"/>
    </linearGradient>
    <linearGradient id="linear-gradient-3" x1="-3512.38" y1="572.581" x2="-3540.73" y2="578.201" xlink:href="#linear-gradient-2"/>
    <linearGradient id="linear-gradient-4" x1="-316.52" y1="71.649" x2="-319.097" y2="72.374" xlink:href="#linear-gradient-2"/>
    <linearGradient id="linear-gradient-5" x1="-335.891" y1="333.304" x2="-339.041" y2="337.8" xlink:href="#linear-gradient-2"/>
  </defs>
  <g id="ic_dnatest" transform="translate(2697.065 -642.958)">
    <circle id="Ellipse_17" data-name="Ellipse 17" cx="101.338" cy="101.338" r="101.338" transform="translate(-2697.065 642.958)" fill="url(#linear-gradient)"/>
    <g id="Group_43" data-name="Group 43" transform="translate(-2655.113 677.81)">
      <g id="Group_42" data-name="Group 42" transform="translate(2.58 0.778)">
        <path id="Path_81" data-name="Path 81" d="M39.978,289.846a10.95,10.95,0,0,0,1.53,6.043A20.055,20.055,0,0,0,47.6,301.75a.358.358,0,0,1,.1.081c.081.052.13.081.207.13a94.665,94.665,0,0,0,11.515,5.99V272.6C47.421,277.709,40.185,281.651,39.978,289.846Z" transform="translate(-32.185 -202.683)" fill="none"/>
        <path id="Path_82" data-name="Path 82" d="M126.515,301.956a.566.566,0,0,0,.207-.13.359.359,0,0,0,.1-.081,19.468,19.468,0,0,0,6.094-5.861,10.95,10.95,0,0,0,1.53-6.043C134.239,281.646,127,277.7,115,272.6v35.347a92.776,92.776,0,0,0,11.515-5.987Z" transform="translate(-87.757 -202.682)" fill="none"/>
        <path id="Path_83" data-name="Path 83" d="M47.941,109.664a20.274,20.274,0,0,0-6.432,6.1,11.232,11.232,0,0,0-1.53,6.042c.207,8.195,7.443,12.137,19.4,17.246.026,0,.026-.026.052-.026V103.7H59.4a97.6,97.6,0,0,0-11.462,5.964Z" transform="translate(-32.185 -77.585)" fill="none"/>
        <path id="Path_84" data-name="Path 84" d="M134.4,121.8a10.95,10.95,0,0,0-1.53-6.042,20.273,20.273,0,0,0-6.432-6.095A97.028,97.028,0,0,0,115,103.7v35.323C126.981,133.938,134.191,130,134.4,121.8Z" transform="translate(-87.757 -77.585)" fill="none"/>
        <path id="Path_85" data-name="Path 85" d="M25.676,102.274c-.081-.052-.13-.081-.207-.13a.358.358,0,0,0-.1-.081,20.054,20.054,0,0,1-6.1-5.863,10.95,10.95,0,0,1-1.53-6.042c.207-8.195,7.443-12.137,19.45-17.246V64.436c-.026,0-.026.026-.052.026-11.956-5.109-19.192-9.051-19.4-17.246a11.231,11.231,0,0,1,1.53-6.042A20.274,20.274,0,0,1,25.7,35.082a97.588,97.588,0,0,1,11.463-5.964h.026V20.557C28.4,16.512,20.36,12.336,18.259,5.723a3.9,3.9,0,0,0-7.621,1.193,4.179,4.179,0,0,0,.156,1.141c2.386,7.777,9.518,12.759,17.324,16.753-5.833,2.93-11.18,6.276-14.549,10.944,0,.026-.026.026-.026.052-.13.181-.233.337-.363.518A18.39,18.39,0,0,0,9.96,47.372c.259,11,8.4,16.883,17.609,21.318-9.18,4.434-17.35,10.321-17.609,21.321a18.215,18.215,0,0,0,3.215,11.048,3.706,3.706,0,0,0,.363.518c.026.026.026.026.026.052,3.371,4.668,8.714,8.039,14.549,10.944-.233.13-.493.259-.729.389l-.156.081c-.181.1-.389.207-.567.311-.389.207-.778.415-1.141.622-.13.081-.285.156-.441.233-.907.519-1.764,1.037-2.619,1.582-.181.13-.389.233-.567.363-.181.1-.337.233-.518.337-.13.081-.259.181-.389.259-.856.6-1.66,1.193-2.464,1.841-.181.13-.337.285-.518.441-.13.1-.259.233-.389.337a1.786,1.786,0,0,1-.337.285c-.1.1-.233.207-.337.311-.363.337-.7.674-1.037,1.011a1.229,1.229,0,0,1-.259.259q-.661.7-1.245,1.4a2.753,2.753,0,0,1-.233.285,1.841,1.841,0,0,0-.259.363,1.841,1.841,0,0,0-.259.363c-.259.389-.518.752-.778,1.141-.081.1-.13.233-.207.337l-.233.389c0,.026,0,.026-.026.026-.13.207-.233.441-.363.648-.026.052-.052.081-.081.13-.052.13-.13.233-.181.363a2.007,2.007,0,0,0-.181.415c-.052.13-.1.233-.156.363-.13.311-.259.622-.363.933a2.283,2.283,0,0,0-.13.389c-.052.13-.081.259-.13.389-.026.052-.026.1-.052.156s-.026.1-.052.156a3.92,3.92,0,0,0,7.521,2.2.262.262,0,0,1,.052-.13c0-.026.026-.081.026-.1.026-.1.081-.207.1-.311.052-.1.081-.233.13-.337a6.2,6.2,0,0,1,.337-.729.81.81,0,0,0,.13-.259l.156-.311c0-.026.026-.026.026-.052a1.071,1.071,0,0,1,.181-.285,2.165,2.165,0,0,1,.207-.311c.081-.1.13-.207.207-.311.233-.337.467-.674.729-.985.052-.081.13-.156.181-.233l.389-.467a.79.79,0,0,1,.207-.207c.081-.081.156-.181.233-.259a12.148,12.148,0,0,1,1.011-.985c.081-.081.181-.156.259-.233s.181-.156.259-.233a1.359,1.359,0,0,0,.285-.259c.181-.156.389-.311.567-.467a2.751,2.751,0,0,0,.285-.233l.622-.467.311-.233c.207-.156.415-.285.622-.441.026,0,.026-.026.052-.026.207-.13.415-.285.622-.415.441-.285.907-.567,1.377-.856.285-.181.6-.337.881-.519l.544-.311c.233-.13.493-.259.729-.415.415-.207.83-.441,1.245-.648.13-.081.285-.156.441-.233.285-.156.6-.285.881-.441.181-.081.337-.181.519-.259.259-.13.519-.259.8-.389.311-.156.622-.311.933-.441.467-.207.907-.441,1.377-.648.311-.156.622-.285.933-.441.026.026.081.026.1.052v-8.588a94.675,94.675,0,0,1-11.521-5.992Z" transform="translate(-9.947 -3)" fill="#feffff"/>
        <path id="Path_86" data-name="Path 86" d="M138.626,101.625c.026-.026.026-.026.026-.052.13-.181.233-.337.363-.518a18.568,18.568,0,0,0,3.216-11.048c-.259-11-8.4-16.883-17.609-21.318,9.181-4.435,17.349-10.321,17.609-21.318a18.215,18.215,0,0,0-3.216-11.048,3.7,3.7,0,0,0-.363-.519c0-.026-.026-.026-.026-.052-3.372-4.667-8.714-8.038-14.552-10.943,7.777-3.994,14.912-9,17.3-16.753a3.652,3.652,0,0,0,.181-1.167A3.874,3.874,0,0,0,137.717,3h-.052a3.957,3.957,0,0,0-3.735,2.723C131.856,12.31,123.791,16.511,115,20.557v8.558a97.023,97.023,0,0,1,11.438,5.967,20.274,20.274,0,0,1,6.432,6.094,10.95,10.95,0,0,1,1.53,6.042c-.207,8.195-7.417,12.137-19.4,17.22v8.478c12.007,5.109,19.243,9.051,19.45,17.246a10.95,10.95,0,0,1-1.53,6.042,19.469,19.469,0,0,1-6.094,5.861.358.358,0,0,1-.1.081.567.567,0,0,1-.207.13A92.777,92.777,0,0,1,115,108.264v8.588c.285.13.544.259.83.389.467.207.933.441,1.377.648.311.156.622.285.933.441.259.13.518.259.8.389.181.081.337.181.518.259.285.156.6.285.881.441.156.081.285.156.441.233.415.207.83.441,1.245.648a6.6,6.6,0,0,1,.729.415l.544.311c.081.052.13.081.207.13.233.13.467.259.674.389.467.285.933.567,1.377.855.207.13.415.259.622.415.026,0,.026.026.052.026s.026,0,.026.026c.207.13.389.259.6.415l.311.233.622.467.311.233c.207.156.389.311.567.467a1.359,1.359,0,0,1,.285.259c.081.081.181.156.259.233s.181.156.259.233c.181.156.363.337.519.493l.259.259a2.336,2.336,0,0,1,.233.259c.081.081.156.181.233.259a.79.79,0,0,0,.207.207l.389.467c.052.081.13.156.181.233.207.233.389.493.567.729a2.964,2.964,0,0,0,.181.259c.081.1.13.207.207.311s.13.207.207.311c.052.081.1.181.156.259,0,.026,0,.026.026.026,0,.026.026.026.026.052l.156.311c.026.052.052.081.081.13s.052.081.081.13a6.207,6.207,0,0,1,.337.729,1.8,1.8,0,0,1,.13.337,1.46,1.46,0,0,1,.1.311c0,.026.026.081.026.1.026.052.026.081.052.13a3.9,3.9,0,0,0,3.735,2.723,3.957,3.957,0,0,0,3.916-3.97,3.892,3.892,0,0,0-.13-.959,2.862,2.862,0,0,0-.081-.285c-.052-.13-.081-.259-.13-.389a2.281,2.281,0,0,1-.13-.389c-.052-.13-.1-.285-.156-.415-.081-.181-.13-.337-.207-.519-.052-.13-.1-.233-.156-.363s-.13-.259-.181-.415a1.4,1.4,0,0,0-.181-.337v-.026c-.026-.052-.052-.081-.081-.13a5.223,5.223,0,0,0-.363-.648c0-.026,0-.026-.026-.026l-.233-.389c-.081-.1-.13-.233-.207-.337a1.746,1.746,0,0,0-.181-.285c-.052-.1-.13-.181-.181-.285a1.152,1.152,0,0,0-.207-.285c-.081-.1-.13-.181-.207-.285-.081-.13-.181-.233-.259-.363s-.181-.233-.259-.363a2.752,2.752,0,0,0-.233-.285,1.96,1.96,0,0,1-.285-.363l-.622-.7a3.992,3.992,0,0,0-.315-.344c-.081-.081-.156-.181-.233-.259l-.493-.493-.052-.052c-.156-.156-.337-.311-.493-.467-.1-.1-.233-.207-.337-.311s-.207-.181-.311-.285c-.13-.1-.259-.233-.389-.337-.181-.156-.337-.285-.518-.441-.13-.1-.285-.233-.415-.337-.648-.519-1.323-1.011-2.025-1.5-.13-.081-.259-.181-.389-.259-.181-.1-.337-.233-.518-.337-.181-.13-.389-.259-.567-.363-.233-.156-.441-.285-.674-.441-.415-.259-.856-.519-1.271-.778-.207-.13-.441-.259-.674-.389-.156-.081-.285-.156-.441-.233-.181-.1-.389-.207-.567-.311-.233-.13-.467-.259-.729-.389-.156-.081-.337-.181-.493-.259-.026-.026-.081-.026-.1-.052-.233-.13-.493-.259-.729-.389C129.911,109.665,135.254,106.295,138.626,101.625Z" transform="translate(-87.756 -3)" fill="#dfeaff"/>
      </g>
      <path id="Path_87" data-name="Path 87" d="M280.511,342.1c-.1.052-.207.13-.311.181C280.3,342.23,280.407,342.152,280.511,342.1Z" transform="translate(-207.534 -253.382)" fill="none"/>
      <path id="Path_88" data-name="Path 88" d="M327.733,281.1l-.233.855Z" transform="translate(-242.567 -208.201)" fill="none"/>
      <path id="Path_89" data-name="Path 89" d="M325.051,290.7a.155.155,0,0,0,.026-.1l-.081.233C325.025,290.782,325.025,290.756,325.051,290.7Z" transform="translate(-240.716 -215.237)" fill="none"/>
      <path id="Path_90" data-name="Path 90" d="M326.53,286.1c-.052.13-.081.259-.13.363C326.452,286.359,326.481,286.23,326.53,286.1Z" transform="translate(-241.753 -211.905)" fill="none"/>
      <path id="Path_91" data-name="Path 91" d="M180.927,156.965a25.61,25.61,0,0,1,24.818,31.976,24.964,24.964,0,0,0,.8-5.887h0v-.962A25.635,25.635,0,0,0,162.8,164.38l.026.026a25.74,25.74,0,0,1,18.1-7.441Z" transform="translate(-120.581 -116.197)" fill="none"/>
      <path id="Path_92" data-name="Path 92" d="M133.6,203.586v.959a25.693,25.693,0,0,0,26.168,25.207,25.433,25.433,0,0,0,11.592-3.034,25.635,25.635,0,0,1-30.138-40.794l-.026-.026a25.543,25.543,0,0,0-7.6,17.687Z" transform="translate(-98.953 -137.689)" fill="none"/>
      <path id="Path_93" data-name="Path 93" d="M113.381,118.672l-.052.052a11.708,11.708,0,0,1-16.546.052l-8.3-8.271L76.063,98.08a35.854,35.854,0,0,1-4.537,1.79c-.026.026-.026.026-.052.026-.285.1-.567.181-.856.259-.026,0-.052.026-.1.026-.259.081-.544.13-.8.207-.052,0-.081.026-.13.026a8.6,8.6,0,0,1-.856.207.1.1,0,0,1-.081.026c-.648.13-1.271.259-1.893.363h-.026c-.285.052-.6.081-.881.13-.081,0-.156.026-.233.026-.233.026-.441.052-.674.081-.1,0-.207.026-.311.026-.181.026-.389.026-.6.052-.13,0-.233.026-.337.026a4.628,4.628,0,0,1-.6.052,1.479,1.479,0,0,1-.337.026c-.207,0-.415.026-.622.026H60.944a35.034,35.034,0,0,1-16.235-3.994A35.4,35.4,0,0,1,36.2,91.184a34.717,34.717,0,0,1-9.8-19.039,35.258,35.258,0,0,1,0-11.437,34.675,34.675,0,0,1,9.49-18.723l-6.069-6.069,6.094,6.042.311-.311a35.4,35.4,0,0,1,8.507-6.276A35.02,35.02,0,0,1,92.58,81.43L105,93.852l8.272,8.3a12.152,12.152,0,0,1,3.475,8.3,11.8,11.8,0,0,1-3.371,8.221l5.653,5.575V0H0V132.779H119.035v-8.532Z" fill="none"/>
      <path id="Path_94" data-name="Path 94" d="M177.856,222.074,141.445,186a25.635,25.635,0,0,0,30.138,40.794c.081-.052.156-.081.233-.13.1-.052.207-.13.311-.182a25.76,25.76,0,0,0,5.729-4.409Z" transform="translate(-99.174 -137.763)" fill="#fff" opacity="0.27"/>
      <path id="Path_95" data-name="Path 95" d="M181.075,157.2A25.545,25.545,0,0,0,163,164.669l36.411,36.048a25.657,25.657,0,0,0,5.6-8.714l.081-.233c.1-.259.181-.519.285-.8.052-.13.081-.259.13-.363a3.139,3.139,0,0,0,.13-.467l.233-.855c0-.026.026-.081.026-.1A25.61,25.61,0,0,0,181.075,157.2Z" transform="translate(-120.729 -116.432)" fill="#fff" opacity="0.27"/>
      <path id="Path_96" data-name="Path 96" d="M147.265,208.558c-.1.052-.207.13-.311.181-.081.052-.156.081-.233.13a25.433,25.433,0,0,1-11.592,3.034,25.693,25.693,0,0,1-26.169-25.2v-.959a25.543,25.543,0,0,1,7.6-17.686l-6.3-6.25a34.5,34.5,0,0,0-9.492,18.724,35.258,35.258,0,0,0,0,11.437,34.717,34.717,0,0,0,9.8,19.039,35.4,35.4,0,0,0,8.507,6.276,35.035,35.035,0,0,0,16.235,3.994h1.19c.207,0,.415-.026.622-.026a1.48,1.48,0,0,0,.337-.026,4.629,4.629,0,0,0,.6-.052c.1,0,.207-.026.337-.026.207-.026.415-.026.6-.052.1,0,.207-.026.311-.026.233-.026.441-.052.674-.081.081,0,.156-.026.233-.026.285-.052.6-.081.881-.13h.026c.622-.1,1.244-.233,1.893-.363a.1.1,0,0,0,.081-.026c.285-.052.567-.13.856-.207.052,0,.081-.026.13-.026.259-.081.544-.13.8-.207.052,0,.081-.026.1-.026.285-.081.567-.156.856-.259.026,0,.026,0,.052-.026a35.857,35.857,0,0,0,4.537-1.79l12.422,12.422,8.3,8.272a11.685,11.685,0,0,0,16.546-.052l.052-.052L153,204.151a26.367,26.367,0,0,1-5.73,4.407Z" transform="translate(-74.288 -119.84)" fill="#feffff"/>
      <path id="Path_97" data-name="Path 97" d="M215.86,191.8l-8.273-8.3-12.423-12.425a35.016,35.016,0,0,0-47.848-46.058,35.4,35.4,0,0,0-8.507,6.276l-.311.311,6.3,6.25a25.635,25.635,0,0,1,43.748,17.712v.959h0a26.392,26.392,0,0,1-.8,5.887c0,.026-.026.081-.026.1l-.233.856a3.142,3.142,0,0,0-.13.467c-.052.13-.081.259-.13.363-.081.259-.181.519-.285.8a.156.156,0,0,0-.026.1c-.026.052-.026.081-.052.13a25.276,25.276,0,0,1-5.6,8.714l34.7,34.362a11.7,11.7,0,0,0,3.371-8.221,12.152,12.152,0,0,0-3.473-8.3Z" transform="translate(-102.582 -89.644)" fill="#dfeaff"/>
      <path id="Path_98" data-name="Path 98" d="M327.03,284.3a3.143,3.143,0,0,0-.13.467A3.132,3.132,0,0,0,327.03,284.3Z" transform="translate(-242.123 -210.571)" fill="#fff" opacity="0.27"/>
      <path id="Path_99" data-name="Path 99" d="M327.03,284.3a3.143,3.143,0,0,0-.13.467A3.132,3.132,0,0,0,327.03,284.3Z" transform="translate(-242.123 -210.571)" fill="url(#linear-gradient-2)"/>
      <path id="Path_100" data-name="Path 100" d="M328.426,280.6c0,.026-.026.081-.026.1a.2.2,0,0,1,.026-.1Z" transform="translate(-243.234 -207.83)" fill="#fff" opacity="0.27"/>
      <path id="Path_101" data-name="Path 101" d="M328.426,280.6c0,.026-.026.081-.026.1a.2.2,0,0,1,.026-.1Z" transform="translate(-243.234 -207.83)" fill="url(#linear-gradient-3)"/>
      <path id="Path_102" data-name="Path 102" d="M281.4,329.509a26.372,26.372,0,0,0,5.731-4.409h0a27.006,27.006,0,0,1-5.731,4.409Z" transform="translate(-208.423 -240.791)" fill="#fff" opacity="0.27"/>
      <path id="Path_104" data-name="Path 104" d="M303.5,300.214a25.656,25.656,0,0,0,5.6-8.714,27.005,27.005,0,0,1-5.6,8.714Z" transform="translate(-224.792 -215.904)" fill="#fff" opacity="0.27"/>
      <path id="Path_106" data-name="Path 106" d="M325.585,287.5c-.081.259-.181.518-.285.8A7.316,7.316,0,0,0,325.585,287.5Z" transform="translate(-240.939 -212.942)" fill="#fff" opacity="0.27"/>
      <path id="Path_107" data-name="Path 107" d="M325.585,287.5c-.081.259-.181.518-.285.8A7.316,7.316,0,0,0,325.585,287.5Z" transform="translate(-240.939 -212.942)" fill="url(#linear-gradient-4)"/>
      <path id="Path_108" data-name="Path 108" d="M279.533,342.8c-.081.052-.156.081-.233.13a.934.934,0,0,1,.233-.13Z" transform="translate(-206.867 -253.9)" fill="#fff" opacity="0.27"/>
      <path id="Path_109" data-name="Path 109" d="M279.533,342.8c-.081.052-.156.081-.233.13a.934.934,0,0,1,.233-.13Z" transform="translate(-206.867 -253.9)" fill="url(#linear-gradient-5)"/>
    </g>
  </g>
</svg>
