<svg xmlns="http://www.w3.org/2000/svg" xmlns:xlink="http://www.w3.org/1999/xlink" width="202.676" height="202.679" viewBox="0 0 202.676 202.679">
  <defs>
    <linearGradient id="linear-gradient" x1="0.172" y1="0.144" x2="0.855" y2="0.838" gradientUnits="objectBoundingBox">
      <stop offset="0" stop-color="#3eecb2"/>
      <stop offset="1" stop-color="#16c98e"/>
    </linearGradient>
  </defs>
  <g id="ic_doctor" transform="translate(3170.042 -642.958)">
    <g id="Path_73" data-name="Path 73" transform="translate(-3170.042 642.958)">
      <path id="Path_1" data-name="Path 1" d="M101.528,202.055a101.266,101.266,0,0,1-20.261-2.042A100.489,100.489,0,0,1,3.043,121.789a101.516,101.516,0,0,1,0-40.521A100.5,100.5,0,0,1,81.267,3.042a101.517,101.517,0,0,1,40.521,0,100.494,100.494,0,0,1,78.225,78.227,101.515,101.515,0,0,1,0,40.521,100.49,100.49,0,0,1-78.225,78.225A101.263,101.263,0,0,1,101.528,202.055Z" transform="translate(-0.19 -0.19)" fill="url(#linear-gradient)"/>
      <path id="Path_2" data-name="Path 2" d="M101.338,1.62a100.459,100.459,0,0,0-20.1,2.026A99.685,99.685,0,0,0,3.646,81.24a100.707,100.707,0,0,0,0,40.2,99.677,99.677,0,0,0,77.59,77.593,100.733,100.733,0,0,0,40.2,0,99.681,99.681,0,0,0,77.593-77.59,100.732,100.732,0,0,0,0-40.2,99.68,99.68,0,0,0-77.59-77.594,100.464,100.464,0,0,0-20.1-2.026m0-1.62A101.338,101.338,0,1,1,0,101.34,101.338,101.338,0,0,1,101.339,0Z" fill="#fff"/>
    </g>
    <g id="Group_39" data-name="Group 39" transform="translate(-3121.635 677.81)">
      <path id="Path_74" data-name="Path 74" d="M271.2,424.3a7.591,7.591,0,0,0-7.6,7.6v15.194h15.194V431.9a7.591,7.591,0,0,0-7.6-7.6Z" transform="translate(-195.25 -314.281)" fill="#d4fff1"/>
      <path id="Path_75" data-name="Path 75" d="M307.6,349.9v12.187a15.2,15.2,0,0,1,11.383,14.7v15.194h13.3a1.9,1.9,0,0,0,1.892-1.893A43.767,43.767,0,0,0,307.6,349.9Z" transform="translate(-227.841 -259.172)" fill="#d4fff1"/>
      <path id="Path_76" data-name="Path 76" d="M22.792,158.1v10.709a30.4,30.4,0,0,0,18.98,28.159v6.871a52.121,52.121,0,0,0-6.3,1.27c-.441.081-.856.156-1.3.259v14.806a11.4,11.4,0,1,1-7.6,0V207.833A43.767,43.767,0,0,0,0,248.027H0a1.9,1.9,0,0,0,1.893,1.892H53.155V158.1Z" transform="translate(0 -117.105)" fill="#fffffe"/>
      <path id="Path_77" data-name="Path 77" d="M224.006,205.4c-.441-.081-.856-.181-1.3-.259a47.138,47.138,0,0,0-6.3-1.115v-7.053a30.4,30.4,0,0,0,18.98-28.185V158.1H205v91.816h7.624V234.722a15.121,15.121,0,0,1,11.383-14.7Z" transform="translate(-151.845 -117.105)" fill="#d4fff1"/>
      <path id="Path_78" data-name="Path 78" d="M235.39,39.309c0-.181-.026-.337-.026-.518h2V7.753A71.478,71.478,0,0,0,205,0V39.309Z" transform="translate(-151.845)" fill="#d4fff1"/>
      <path id="Path_79" data-name="Path 79" d="M80.3,7.753V38.79h2c0,.181-.026.337-.026.518h30.364V0A71.451,71.451,0,0,0,80.3,7.753Z" transform="translate(-59.479)" fill="#fffffe"/>
    </g>
  </g>
</svg>
