<svg xmlns="http://www.w3.org/2000/svg" xmlns:xlink="http://www.w3.org/1999/xlink" width="202.676" height="202.679" viewBox="0 0 202.676 202.679"><defs><linearGradient id="a" x1="0.919" y1="1" x2="0.25" y2="0.255" gradientUnits="objectBoundingBox"><stop offset="0" stop-color="#17d687"/><stop offset="1" stop-color="#59ee9a"/></linearGradient></defs><g transform="translate(2223.159 -642.958)"><g transform="translate(-2223.159 642.958)"><path d="M101.528,202.055a101.266,101.266,0,0,1-20.261-2.042A100.489,100.489,0,0,1,3.043,121.789a101.516,101.516,0,0,1,0-40.521A100.5,100.5,0,0,1,81.267,3.042a101.517,101.517,0,0,1,40.521,0,100.494,100.494,0,0,1,78.225,78.227,101.515,101.515,0,0,1,0,40.521,100.49,100.49,0,0,1-78.225,78.225A101.263,101.263,0,0,1,101.528,202.055Z" transform="translate(-0.19 -0.19)" fill="url(#a)"/><path d="M101.338,1.62a100.459,100.459,0,0,0-20.1,2.026A99.685,99.685,0,0,0,3.646,81.24a100.707,100.707,0,0,0,0,40.2,99.677,99.677,0,0,0,77.59,77.593,100.733,100.733,0,0,0,40.2,0,99.681,99.681,0,0,0,77.593-77.59,100.732,100.732,0,0,0,0-40.2,99.68,99.68,0,0,0-77.59-77.594,100.464,100.464,0,0,0-20.1-2.026m0-1.62A101.338,101.338,0,1,1,0,101.34,101.338,101.338,0,0,1,101.339,0Z" fill="#fff"/></g><g transform="translate(-2178.623 677.81)"><path d="M237.692,360.154a2.358,2.358,0,0,0-3.313,0l-2.226,2.2a2.327,2.327,0,0,0,0,3.287l2.226,2.2a2.358,2.358,0,0,0,3.313,0l2.225-2.2.052-.052a2.289,2.289,0,0,0-.052-3.235Z" transform="translate(-171.574 -266.451)" fill="none"/><path d="M298.345,420.254a2.358,2.358,0,0,0-3.313,0l-2.225,2.2-.052.052a2.289,2.289,0,0,0,.052,3.235l2.225,2.2a2.358,2.358,0,0,0,3.313,0l2.225-2.2h0a2.485,2.485,0,0,0,0-3.287Z" transform="translate(-216.519 -310.999)" fill="none"/><path d="M124.474,361.8A11.729,11.729,0,0,0,112.7,373.47c0,9.083,10.48,15.759,20.081,8.75a2.106,2.106,0,0,0,.492-.466c.258-.336.492-.7.724-1.035h0C139.872,371.5,133.3,361.826,124.474,361.8Z" transform="translate(-83.536 -268.175)" fill="none"/><path d="M119.376,4.528h20.806V0H116.607A3.877,3.877,0,0,0,112.7,3.855V21.012a2.341,2.341,0,0,0,2.355,2.329h3.16c1.112,0,2.082,2.092,2.315,3.178h19.655V4.528Z" transform="translate(-83.536 0.001)" fill="#feffff"/><path d="M37,105.5v29.6a2.452,2.452,0,0,1-.336,1.215L24.371,156.3,1.781,193.018a11.623,11.623,0,0,0,9.965,17.752H56.64V105.5Zm13.456,85.241c-.233.336-.466.7-.724,1.035a2.107,2.107,0,0,1-.492.466c-9.6,7.013-20.081.336-20.081-8.75a11.729,11.729,0,0,1,11.774-11.671c8.824.026,15.4,9.7,9.523,18.916Z" transform="translate(0.007 -78.199)" fill="#feffff"/><path d="M274.132,193.018,251.321,156.3,238.9,136.319a2.2,2.2,0,0,1-.339-1.215V105.5H218.9V210.77h45.126C273.273,210.744,278.949,200.73,274.132,193.018Zm-43.41-15.681-.052.052-2.239,2.2a2.384,2.384,0,0,1-3.333,0l-2.239-2.2a2.317,2.317,0,0,1,0-3.287l2.239-2.2a2.384,2.384,0,0,1,3.333,0l2.239,2.2a2.278,2.278,0,0,1,.052,3.235Zm15.754,15.6h0l-2.239,2.2a2.384,2.384,0,0,1-3.333,0l-2.239-2.2a2.278,2.278,0,0,1-.052-3.235l.052-.052,2.239-2.2a2.384,2.384,0,0,1,3.333,0l2.239,2.2a2.473,2.473,0,0,1,0,3.291Zm11.51,15.423a1.028,1.028,0,1,1,.738-.3,1.035,1.035,0,0,1-.738.3Zm4.765-.906c11.823,0,9.56-11.18,8.831-13.275C272.282,196.249,274.548,207.454,262.751,207.454Z" transform="translate(-162.61 -78.199)" fill="#f9eeff"/><path d="M241.077,24.56h3.2a2.418,2.418,0,0,0,2.386-2.451h0V4.084A4.066,4.066,0,0,0,242.676,0H218.9V4.765h0V26.52h19.845a2.408,2.408,0,0,1,2.332-1.96ZM230.461,6.26A1.324,1.324,0,0,1,229.15,4.9a1.312,1.312,0,1,1,2.622,0,1.324,1.324,0,0,1-1.311,1.361Z" transform="translate(-162.61)" fill="#f9eeff"/><circle cx="1.68" cy="1.68" r="1.68" transform="translate(93.808 127.449)" fill="#f9eeff"/><circle cx="2.582" cy="2.582" r="2.582" transform="translate(65.112 2.288)" fill="#f9eeff"/></g></g></svg>