<svg xmlns="http://www.w3.org/2000/svg" xmlns:xlink="http://www.w3.org/1999/xlink" width="292.676" height="292.676" viewBox="0 0 292.676 292.676"><defs><linearGradient id="a" x1="1" y1="1" x2="0.3" y2="0.297" gradientUnits="objectBoundingBox"><stop offset="0" stop-color="#8ad8ff"/><stop offset="1" stop-color="#5cc8ff"/></linearGradient><filter id="b" x="0" y="0" width="292.676" height="292.676" filterUnits="userSpaceOnUse"><feOffset dy="3" input="SourceAlpha"/><feGaussianBlur stdDeviation="15" result="c"/><feFlood flood-color="#00a9ff" flood-opacity="0.302"/><feComposite operator="in" in2="c"/><feComposite in="SourceGraphic"/></filter></defs><g transform="translate(-1526.84 -969.94)"><g transform="matrix(1, 0, 0, 1, 1526.84, 969.94)" filter="url(#b)"><circle cx="101.338" cy="101.338" r="101.338" transform="translate(45 42)" fill="url(#a)"/></g><g transform="translate(1607.34 1047.444)"><path d="M95.317,236.753,39.7,292.785h0a37.231,37.231,0,0,0,52.474-.169L121.619,262.9Z" transform="translate(-28.8 -170.964)" fill="#e9f8ff"/><path d="M41.2,143.866,11.731,173.618a37.231,37.231,0,0,0,.169,52.474l55.628-56.021Z" transform="translate(-1 -104.272)" fill="#feffff"/><path d="M292.256,92.274a37.2,37.2,0,0,0-.169-52.474h0L237.5,94.728l26.308,26.139Z" transform="translate(-170.886 -29.069)" fill="#e9f8ff"/><path d="M198.643,1.7a36.925,36.925,0,0,0-26.2,10.9L144,41.189l9.884,9.83,4.957,4.929,11.492,11.408L224.92,12.428A37.036,37.036,0,0,0,198.643,1.7Z" transform="translate(-103.722 -1.699)" fill="#fff"/><path d="M272.2,30.146c15.407-15.942,34.983-3.775,34.983-3.775" transform="translate(-195.812 -16.231)" fill="none" stroke="#f6fcff" stroke-linecap="round" stroke-width="8.086"/><path d="M1.969,0A1.969,1.969,0,1,1,0,1.969,1.969,1.969,0,0,1,1.969,0Z" transform="translate(70.052 16.339)" fill="#f6fcff"/></g></g></svg>