<svg xmlns="http://www.w3.org/2000/svg" width="15" height="18" viewBox="0 0 15 18">
  <path id="Location_point" data-name="Location point" d="M7.5,9.338A2.038,2.038,0,1,1,9.527,7.3,2.035,2.035,0,0,1,7.5,9.338Zm0-5.1A3.057,3.057,0,1,0,10.54,7.3,3.053,3.053,0,0,0,7.5,4.243Zm4.589,7.912L7.5,16.77,2.911,12.155a6.558,6.558,0,0,1,0-9.228,6.471,6.471,0,0,1,9.179,0A6.558,6.558,0,0,1,12.089,12.155Zm.717-9.949a7.485,7.485,0,0,0-10.613,0,7.584,7.584,0,0,0,0,10.67l4.948,4.974a.5.5,0,0,0,.716,0l4.948-4.974A7.584,7.584,0,0,0,12.806,2.206Z" fill="#626262" fill-rule="evenodd"/>
</svg>
