<svg xmlns="http://www.w3.org/2000/svg" width="15" height="18" viewBox="0 0 15 18">
  <path id="Lock" d="M9.244,11.547A1.745,1.745,0,1,1,7.5,9.849,1.722,1.722,0,0,1,9.244,11.547Zm4.709,2.547a2.93,2.93,0,0,1-2.965,2.887H4.012a2.93,2.93,0,0,1-2.965-2.887V9A2.93,2.93,0,0,1,4.012,6.113h6.977A2.93,2.93,0,0,1,13.953,9ZM4.535,3.906A2.93,2.93,0,0,1,7.5,1.019a3.016,3.016,0,0,1,2.095.841,2.859,2.859,0,0,1,.87,2.045V5.094H4.535Zm6.977,1.222V3.906A3.865,3.865,0,0,0,10.335,1.14,4.077,4.077,0,0,0,7.5,0,3.964,3.964,0,0,0,3.488,3.906V5.127A3.949,3.949,0,0,0,0,9v5.094A3.964,3.964,0,0,0,4.012,18h6.977A3.964,3.964,0,0,0,15,14.094V9A3.949,3.949,0,0,0,11.512,5.127Z" fill="#757575" fill-rule="evenodd"/>
</svg>
