<svg xmlns="http://www.w3.org/2000/svg" width="18" height="13" viewBox="0 0 18 13">
  <path id="Mail" d="M15.358,3.394a.515.515,0,0,1-.117.716L9.809,8.039a1.35,1.35,0,0,1-1.581,0L2.76,4.11a.516.516,0,0,1-.119-.716.506.506,0,0,1,.711-.119L8.819,7.206a.337.337,0,0,0,.4,0l5.432-3.929A.506.506,0,0,1,15.358,3.394Zm1.624,7.383a1.2,1.2,0,0,1-1.189,1.2H2.208a1.2,1.2,0,0,1-1.189-1.2V2.224a1.194,1.194,0,0,1,1.189-1.2H15.793a1.2,1.2,0,0,1,1.189,1.2ZM15.793,0H2.208A2.218,2.218,0,0,0,0,2.224v8.553A2.218,2.218,0,0,0,2.208,13H15.793A2.218,2.218,0,0,0,18,10.776V2.224A2.218,2.218,0,0,0,15.793,0Z" fill="#757575" fill-rule="evenodd"/>
</svg>
