<svg xmlns="http://www.w3.org/2000/svg" width="11" height="18" viewBox="0 0 11 18">
  <path id="Phone" d="M6.333,15.089A.833.833,0,1,1,5.5,14.24.841.841,0,0,1,6.333,15.089Zm.5-12.458a.5.5,0,0,1-.5.509H4.667a.509.509,0,0,1,0-1.018H6.333A.5.5,0,0,1,6.833,2.631ZM10,15.792a1.18,1.18,0,0,1-1.167,1.19H2.167A1.18,1.18,0,0,1,1,15.792V2.207A1.18,1.18,0,0,1,2.167,1.018H8.833A1.18,1.18,0,0,1,10,2.207ZM8.833,0H2.167A2.189,2.189,0,0,0,0,2.207V15.792A2.19,2.19,0,0,0,2.167,18H8.833A2.19,2.19,0,0,0,11,15.792V2.207A2.189,2.189,0,0,0,8.833,0Z" fill="#626262" fill-rule="evenodd"/>
</svg>
