<svg xmlns="http://www.w3.org/2000/svg" width="15.957" height="12.968" viewBox="0 0 15.957 12.968">
  <path id="twitter" d="M15.982,1.587A6.536,6.536,0,0,1,14.1,2.1,3.283,3.283,0,0,0,15.541.291a6.541,6.541,0,0,1-2.079.794A3.275,3.275,0,0,0,7.8,3.326a3.311,3.311,0,0,0,.084.746A9.3,9.3,0,0,1,1.137.652,3.277,3.277,0,0,0,2.15,5.022,3.258,3.258,0,0,1,.667,4.613v.041A3.275,3.275,0,0,0,3.293,7.864a3.257,3.257,0,0,1-.862.115,3.322,3.322,0,0,1-.616-.058,3.278,3.278,0,0,0,3.057,2.273A6.567,6.567,0,0,1,.807,11.6a6.547,6.547,0,0,1-.781-.047A9.264,9.264,0,0,0,5.043,13.02a9.25,9.25,0,0,0,9.314-9.313q0-.213-.01-.423A6.67,6.67,0,0,0,15.982,1.587Z" transform="translate(-0.025 -0.052)" fill="#2daae1"/>
</svg>
