<svg xmlns="http://www.w3.org/2000/svg" width="22" height="22" viewBox="0 0 22 22">
  <path id="User_Icon" data-name="User Icon" d="M20.4,20.159a1.526,1.526,0,0,1-1.183.564H2.787A1.526,1.526,0,0,1,1.6,20.159a1.279,1.279,0,0,1-.259-1.131A9.881,9.881,0,0,1,11,11.639a9.88,9.88,0,0,1,9.654,7.388A1.279,1.279,0,0,1,20.4,20.159ZM6.355,5.82a4.646,4.646,0,0,1,9.289,0,4.646,4.646,0,0,1-9.289,0Zm15.568,12.9a11.084,11.084,0,0,0-7.82-7.938A5.8,5.8,0,0,0,16.952,5.82,5.894,5.894,0,0,0,11,0,5.894,5.894,0,0,0,5.048,5.82,5.8,5.8,0,0,0,7.9,10.784a11.084,11.084,0,0,0-7.82,7.938,2.538,2.538,0,0,0,.5,2.224A2.812,2.812,0,0,0,2.787,22H19.213a2.812,2.812,0,0,0,2.211-1.054A2.538,2.538,0,0,0,21.924,18.722Z" fill="#b6b6b6" fill-rule="evenodd"/>
</svg>
