<svg xmlns="http://www.w3.org/2000/svg" width="16" height="16" viewBox="0 0 16 16">
  <path id="User" d="M14.833,14.661a1.11,1.11,0,0,1-.86.41H2.027a1.11,1.11,0,0,1-.86-.41.93.93,0,0,1-.189-.823A7.186,7.186,0,0,1,8,8.465a7.186,7.186,0,0,1,7.021,5.373A.93.93,0,0,1,14.833,14.661ZM4.622,4.233a3.379,3.379,0,0,1,6.756,0,3.379,3.379,0,0,1-6.756,0Zm11.322,9.383a8.061,8.061,0,0,0-5.687-5.773,4.216,4.216,0,0,0,2.071-3.61A4.286,4.286,0,0,0,8,0,4.286,4.286,0,0,0,3.672,4.233a4.216,4.216,0,0,0,2.071,3.61A8.061,8.061,0,0,0,.056,13.616a1.846,1.846,0,0,0,.364,1.617A2.045,2.045,0,0,0,2.027,16H13.973a2.045,2.045,0,0,0,1.608-.767A1.846,1.846,0,0,0,15.944,13.616Z" fill="#626262" fill-rule="evenodd"/>
</svg>
