<svg xmlns="http://www.w3.org/2000/svg" xmlns:xlink="http://www.w3.org/1999/xlink" width="202.676" height="202.679" viewBox="0 0 202.676 202.679">
  <defs>
    <linearGradient id="linear-gradient" x1="0.2" y1="0.111" x2="0.841" y2="0.856" gradientUnits="objectBoundingBox">
      <stop offset="0" stop-color="#ffc45e"/>
      <stop offset="0.367" stop-color="#ffc45e"/>
      <stop offset="1" stop-color="#fd9d38"/>
    </linearGradient>
    <linearGradient id="linear-gradient-2" x1="-5.206" y1="7.256" x2="-5.202" y2="7.248" gradientUnits="objectBoundingBox">
      <stop offset="0" stop-color="#ff9313"/>
      <stop offset="1" stop-color="#f60"/>
    </linearGradient>
  </defs>
  <g id="vaksin" transform="translate(2697.065 -1069.938)">
    <g id="Path_73" data-name="Path 73" transform="translate(-2697.065 1069.938)">
      <path id="Path_5" data-name="Path 5" d="M101.528,202.056a101.377,101.377,0,0,1-20.282-2.046,100.491,100.491,0,0,1-78.2-78.221,101.517,101.517,0,0,1,0-40.521A100.5,100.5,0,0,1,81.267,3.042a101.516,101.516,0,0,1,40.521,0,100.494,100.494,0,0,1,78.225,78.227,101.515,101.515,0,0,1,0,40.521,100.49,100.49,0,0,1-78.225,78.225,101.324,101.324,0,0,1-20.26,2.041Z" transform="translate(-0.19 -0.19)" fill="url(#linear-gradient)"/>
      <path id="Path_6" data-name="Path 6" d="M101.338,1.62a100.459,100.459,0,0,0-20.1,2.026A99.685,99.685,0,0,0,3.646,81.24a100.706,100.706,0,0,0,0,40.2,99.677,99.677,0,0,0,77.59,77.593,100.694,100.694,0,0,0,40.2,0,99.68,99.68,0,0,0,77.593-77.59,100.732,100.732,0,0,0,0-40.2,99.68,99.68,0,0,0-77.59-77.594,100.464,100.464,0,0,0-20.1-2.026m0-1.62A101.338,101.338,0,1,1,0,101.34,101.338,101.338,0,0,1,101.339,0Z" fill="#fff"/>
    </g>
    <g id="Group_35" data-name="Group 35" transform="translate(-2662.213 1104.797)">
      <path id="Path_68" data-name="Path 68" d="M100.524,194.664,86.236,180.3,2.9,263.847a4.59,4.59,0,0,0,.343.4,3.961,3.961,0,0,0,5.614,0l19.5-19.582.027-.027a1.3,1.3,0,0,1,1.845.027l3.742,3.769.027.027a1.3,1.3,0,0,0,1.845-.027L45.2,239.02l.027-.027a1.3,1.3,0,0,1,1.845.027l3.742,3.769a1.353,1.353,0,0,0,1.871,0l9.356-9.408a1.386,1.386,0,0,0,0-1.9l-9.356-9.409a1.386,1.386,0,0,1,0-1.9l3.742-3.769.027-.027a1.3,1.3,0,0,1,1.845.027l9.3,9.409.027.027a1.3,1.3,0,0,0,1.845-.027l9.356-9.409a1.386,1.386,0,0,0,0-1.9l-9.356-9.41-.027-.027a1.328,1.328,0,0,1,.027-1.871l3.743-3.769.027-.027a1.3,1.3,0,0,1,1.845.027l9.356,9.409.027.027a1.3,1.3,0,0,0,1.845-.027l4.665-4.692,5.614-5.64,3.927-3.848L86.236,180.3h0Z" transform="translate(-2.138 -132.777)" fill="#ffe6b9"/>
      <path id="Path_69" data-name="Path 69" d="M70.4,128l-3.848,3.874-5.614,5.64L22.594,176.046l-.027.027a1.328,1.328,0,0,0,.027,1.871l3.716,3.769a1.386,1.386,0,0,1,0,1.9l-9.356,9.409-.027.027a1.328,1.328,0,0,0,.027,1.871l3.716,3.716.027.027a1.329,1.329,0,0,1-.027,1.871L1.17,220.116a4.017,4.017,0,0,0-.343,5.245l83.336-83.549h0Z" transform="translate(-0.01 -94.261)" fill="#fffffe"/>
      <path id="Path_70" data-name="Path 70" d="M369.324,63.331l-13.017-13.02L356.1,50.1,322.2,83.888,336.406,98.12,322.2,83.888h0l14.232,14.259.369-.369,4.639,4.639.027.027a1.3,1.3,0,0,0,1.845-.027l3.716-3.716a1.353,1.353,0,0,0,0-1.871L331.214,81.015l22.3-22.323L363.74,68.918l.027.027a1.3,1.3,0,0,0,1.845-.027l3.716-3.716a1.353,1.353,0,0,0,0-1.871Z" transform="translate(-237.285 -36.892)" fill="#ffe6b9"/>
      <path id="Path_71" data-name="Path 71" d="M304.827,13.195,292.019.385l-.027-.027a1.3,1.3,0,0,0-1.845.027L286.431,4.1l-.027.027a1.3,1.3,0,0,0,.027,1.845l9.3,9.3.027.027a1.3,1.3,0,0,1-.027,1.845l-20.422,20.43-.027.027a1.3,1.3,0,0,1-1.845-.027L258.573,22.709l-.026-.028a1.3,1.3,0,0,0-1.845.027l-3.716,3.716-.027.027a1.3,1.3,0,0,0,.027,1.845l3.716,3.716a1.334,1.334,0,0,1,.369,1.107l13.863,13.867Z" transform="translate(-186.019 0.014)" fill="#fffffe"/>
      <path id="Path_72" data-name="Path 72" d="M269.6,125.7l13.863,13.863h0Z" transform="translate(-198.548 -92.568)" fill="url(#linear-gradient-2)"/>
    </g>
  </g>
</svg>
